HIERARCHY
ROOT Hips
{
  OFFSET 5.84602e-005 68.8428 3.50346
  CHANNELS 6 Xposition Yposition Zposition Zrotation Xrotation Yrotation
  JOINT Spine
  {
    OFFSET 0 8.597 -4.6522
    CHANNELS 3 Zrotation Xrotation Yrotation
    JOINT Spine1
    {
      OFFSET 0 7.8454 0.4098
      CHANNELS 3 Zrotation Xrotation Yrotation
      JOINT Spine2
      {
        OFFSET 0 9.7078 -2.1609
        CHANNELS 3 Zrotation Xrotation Yrotation
        JOINT Neck
        {
          OFFSET 0 21.8761 -0.4549
          CHANNELS 3 Zrotation Xrotation Yrotation
          JOINT Head
          {
            OFFSET 0 12.3537 3.3602
            CHANNELS 3 Zrotation Xrotation Yrotation
            End Site
            {
              OFFSET 0.0001 18.9506 0.5657
            }
          }
        }
        JOINT LeftShoulder
        {
          OFFSET 2.2086 21.1115 7.2329
          CHANNELS 3 Zrotation Xrotation Yrotation
          JOINT LeftArm
          {
            OFFSET 13.1193 3.0282 -4.8998
            CHANNELS 3 Zrotation Xrotation Yrotation
            JOINT LeftForeArm
            {
              OFFSET 27.4081 -0.0973053 -0.2375
              CHANNELS 3 Zrotation Xrotation Yrotation
              JOINT LeftHand
              {
                OFFSET 22.8641 0.0662994 -0.1369
                CHANNELS 3 Zrotation Xrotation Yrotation
                JOINT LeftHandIndex1
                {
                  OFFSET 8.8614 0.775009 2.4612
                  CHANNELS 3 Zrotation Xrotation Yrotation
                  JOINT LeftHandIndex2
                  {
                    OFFSET 3.3146 -0.808304 0.5841
                    CHANNELS 3 Zrotation Xrotation Yrotation
                    JOINT LeftHandIndex3
                    {
                      OFFSET 2.2628 -0.552002 0.3989
                      CHANNELS 3 Zrotation Xrotation Yrotation
                      End Site
                      {
                        OFFSET 1.6102 -0.4807 0.2612
                      }
                    }
                  }
                }
                JOINT LeftHandMiddle1
                {
                  OFFSET 8.9937 0.895004 0.2143
                  CHANNELS 3 Zrotation Xrotation Yrotation
                  JOINT LeftHandMiddle2
                  {
                    OFFSET 4.0984 0.0113983 -0.0242
                    CHANNELS 3 Zrotation Xrotation Yrotation
                    JOINT LeftHandMiddle3
                    {
                      OFFSET 2.2716 0.00689697 -0.0138001
                      CHANNELS 3 Zrotation Xrotation Yrotation
                      End Site
                      {
                        OFFSET 2.0404 -0.1441 0.0027
                      }
                    }
                  }
                }
                JOINT LeftHandRing1
                {
                  OFFSET 8.5234 0.597198 -2.0164
                  CHANNELS 3 Zrotation Xrotation Yrotation
                  JOINT LeftHandRing2
                  {
                    OFFSET 3.7188 -0.188293 -0.2328
                    CHANNELS 3 Zrotation Xrotation Yrotation
                    JOINT LeftHandRing3
                    {
                      OFFSET 2.1191 -0.106598 -0.1332
                      CHANNELS 3 Zrotation Xrotation Yrotation
                      End Site
                      {
                        OFFSET 1.8737 -0.2304 -0.0886
                      }
                    }
                  }
                }
                JOINT LeftHandPinky1
                {
                  OFFSET 7.9094 -0.601089 -3.4825
                  CHANNELS 3 Zrotation Xrotation Yrotation
                  JOINT LeftHandPinky2
                  {
                    OFFSET 2.2874 -0.477005 -0.6314
                    CHANNELS 3 Zrotation Xrotation Yrotation
                    JOINT LeftHandPinky3
                    {
                      OFFSET 1.6774 -0.349396 -0.4633
                      CHANNELS 3 Zrotation Xrotation Yrotation
                      End Site
                      {
                        OFFSET 1.4888 -0.4091 -0.3416
                      }
                    }
                  }
                }
                JOINT LeftHandThumb1
                {
                  OFFSET 1.833 -1.3875 1.3896
                  CHANNELS 3 Zrotation Xrotation Yrotation
                  JOINT LeftHandThumb2
                  {
                    OFFSET 3.4129 -1.121 2.5732
                    CHANNELS 3 Zrotation Xrotation Yrotation
                    JOINT LeftHandThumb3
                    {
                      OFFSET 2.2474 -0.804199 1.6192
                      CHANNELS 3 Zrotation Xrotation Yrotation
                      End Site
                      {
                        OFFSET 1.6527 -0.5689 1.1317
                      }
                    }
                  }
                }
              }
            }
          }
        }
        JOINT RightShoulder
        {
          OFFSET -2.2086 21.1115 7.2329
          CHANNELS 3 Zrotation Xrotation Yrotation
          JOINT RightArm
          {
            OFFSET -13.1216 3.0287 -4.9007
            CHANNELS 3 Zrotation Xrotation Yrotation
            JOINT RightForeArm
            {
              OFFSET -27.4081 -0.0973053 -0.2375
              CHANNELS 3 Zrotation Xrotation Yrotation
              JOINT RightHand
              {
                OFFSET -22.8641 0.0664063 -0.1369
                CHANNELS 3 Zrotation Xrotation Yrotation
                JOINT RightHandIndex1
                {
                  OFFSET -8.8614 0.774994 2.4612
                  CHANNELS 3 Zrotation Xrotation Yrotation
                  JOINT RightHandIndex2
                  {
                    OFFSET -3.3146 -0.808304 0.5841
                    CHANNELS 3 Zrotation Xrotation Yrotation
                    JOINT RightHandIndex3
                    {
                      OFFSET -2.2628 -0.552002 0.3989
                      CHANNELS 3 Zrotation Xrotation Yrotation
                      End Site
                      {
                        OFFSET -1.6102 -0.4807 0.2612
                      }
                    }
                  }
                }
                JOINT RightHandMiddle1
                {
                  OFFSET -8.9937 0.894989 0.2143
                  CHANNELS 3 Zrotation Xrotation Yrotation
                  JOINT RightHandMiddle2
                  {
                    OFFSET -4.0984 0.0113983 -0.0242
                    CHANNELS 3 Zrotation Xrotation Yrotation
                    JOINT RightHandMiddle3
                    {
                      OFFSET -2.2716 0.00691223 -0.0138001
                      CHANNELS 3 Zrotation Xrotation Yrotation
                      End Site
                      {
                        OFFSET -2.0404 -0.1441 0.0027
                      }
                    }
                  }
                }
                JOINT RightHandRing1
                {
                  OFFSET -8.5234 0.597198 -2.0164
                  CHANNELS 3 Zrotation Xrotation Yrotation
                  JOINT RightHandRing2
                  {
                    OFFSET -3.7188 -0.188309 -0.2328
                    CHANNELS 3 Zrotation Xrotation Yrotation
                    JOINT RightHandRing3
                    {
                      OFFSET -2.1191 -0.106598 -0.1332
                      CHANNELS 3 Zrotation Xrotation Yrotation
                      End Site
                      {
                        OFFSET -1.8737 -0.2304 -0.0886
                      }
                    }
                  }
                }
                JOINT RightHandPinky1
                {
                  OFFSET -7.9094 -0.601105 -3.4825
                  CHANNELS 3 Zrotation Xrotation Yrotation
                  JOINT RightHandPinky2
                  {
                    OFFSET -2.2874 -0.477005 -0.6314
                    CHANNELS 3 Zrotation Xrotation Yrotation
                    JOINT RightHandPinky3
                    {
                      OFFSET -1.6774 -0.349396 -0.4633
                      CHANNELS 3 Zrotation Xrotation Yrotation
                      End Site
                      {
                        OFFSET -1.4888 -0.4091 -0.3416
                      }
                    }
                  }
                }
                JOINT RightHandThumb1
                {
                  OFFSET -1.833 -1.38751 1.3896
                  CHANNELS 3 Zrotation Xrotation Yrotation
                  JOINT RightHandThumb2
                  {
                    OFFSET -3.41299 -1.12099 2.5732
                    CHANNELS 3 Zrotation Xrotation Yrotation
                    JOINT RightHandThumb3
                    {
                      OFFSET -2.24741 -0.804108 1.6192
                      CHANNELS 3 Zrotation Xrotation Yrotation
                      End Site
                      {
                        OFFSET -1.6527 -0.5689 1.1317
                      }
                    }
                  }
                }
              }
            }
          }
        }
      }
    }
  }
  JOINT RightUpLeg
  {
    OFFSET -9.1966 3.8861 -0.7581
    CHANNELS 3 Zrotation Xrotation Yrotation
    JOINT RightLeg
    {
      OFFSET -0.7359 -41.0265 0
      CHANNELS 3 Zrotation Xrotation Yrotation
      JOINT RightFoot
      {
        OFFSET 0 -40.2855 0
        CHANNELS 3 Zrotation Xrotation Yrotation
        JOINT RightToeBase
        {
          OFFSET 0 -5.6122 11.7359
          CHANNELS 3 Zrotation Xrotation Yrotation
          End Site
          {
            OFFSET 0 0 7.8731
          }
        }
      }
    }
  }
  JOINT LeftUpLeg
  {
    OFFSET 9.1965 3.8864 -0.7581
    CHANNELS 3 Zrotation Xrotation Yrotation
    JOINT LeftLeg
    {
      OFFSET 0.7359 -41.0268 0
      CHANNELS 3 Zrotation Xrotation Yrotation
      JOINT LeftFoot
      {
        OFFSET 0 -40.2855 0
        CHANNELS 3 Zrotation Xrotation Yrotation
        JOINT LeftToeBase
        {
          OFFSET 0 -5.6122 11.7359
          CHANNELS 3 Zrotation Xrotation Yrotation
          End Site
          {
            OFFSET 0 0 7.8731
          }
        }
      }
    }
  }
}
MOTION
Frames:	5
Frame Time:	0.0333333
16.0055 9.08207 29.3426 -0 -33.0001 -0 1.55037e-007 18.5993 -3.28151e-007 4.70906e-007 37.1986 -7.80682e-007 4.70906e-007 37.1986 -7.80682e-007 4.07984e-014 14.3048 -2.92463e-012 0.983984 -29.4494 -2.28605 -1.50183e-013 1.22877e-005 -7.8872e-014 -62.095 -0.359448 -19.1762 1.40081e-006 6.38647e-006 -114.743 -48.6165 -35.1223 -6.64784 -6.36111e-015 6.36111e-015 -1.59028e-015 -1.11319e-014 9.54166e-015 -1.59028e-015 -9.54166e-015 6.36111e-015 -4.77083e-015 -6.36111e-015 6.36111e-015 -1.59028e-015 -0.0145884 -8.79021e-005 -3.7171e-006 -1.11319e-014 -6.36111e-015 3.18055e-015 -6.36111e-015 6.36111e-015 -1.59028e-015 -0.0187551 -0.00117695 5.8691e-005 4.77083e-015 -3.18055e-015 1.59028e-015 -6.36111e-015 6.36111e-015 -1.59028e-015 -0.0122481 -0.00324265 0.000672972 -6.55692e-008 6.69982e-007 -1.75795e-007 -6.36111e-015 6.36111e-015 -1.59028e-015 -1.11319e-014 9.54166e-015 -1.59028e-015 -9.54166e-015 6.36111e-015 -4.77083e-015 2.93202e-007 5.08083e-006 1.9987 60.546 9.92886 72.3443 4.71592 1.93136 10.9626 14.9984 16.9983 -0.00196625 -7.67249e-007 3.29139e-006 -1.74197e-006 -1.94635e-006 3.77496e-006 -4.12553e-007 -7.67248e-007 3.29139e-006 -1.74197e-006 -7.67249e-007 3.29139e-006 -1.74197e-006 0.0150228 -9.84909e-005 -9.23623e-007 7.15279e-007 8.61423e-007 -1.24105e-006 -7.67249e-007 3.29139e-006 -1.74197e-006 0.0190186 -0.00119345 -6.55513e-005 2.19982e-006 -1.56846e-006 -7.39679e-007 -7.67249e-007 3.29139e-006 -1.74197e-006 0.0122392 -0.00324358 -0.000680046 7.15249e-007 8.61467e-007 -1.24105e-006 -7.67249e-007 3.29139e-006 -1.74197e-006 -1.94635e-006 3.77496e-006 -4.12553e-007 -7.67248e-007 3.29139e-006 -1.74197e-006 -50.54 -2.91304 16.4396 179.968 56.3507 175.79 -2.52849 16.1303 -2.46609 7.95139e-016 3.18055e-015 -3.97569e-015 49.6462 -12.8651 -3.82625 -179.922 41.859 -173.724 -1.11389 43.1065 5.11422 -3.54238e-007 5.88763e-007 -9.96737e-007 
16.0016 9.09023 28.8659 -0 -33.0001 -0 1.55037e-007 18.5993 -3.28151e-007 4.70906e-007 37.1986 -7.80682e-007 4.70906e-007 37.1986 -7.80682e-007 -4.76316e-013 14.0628 -1.38077e-012 1.00943 -31.154 -2.40597 -1.50183e-013 1.22877e-005 -7.8872e-014 -62.2779 -0.413736 -19.7088 -1.52588e-005 -2.81736e-015 -113.673 -48.4702 -36.3589 -6.21577 4.77083e-015 -9.54166e-015 -6.36111e-015 2.29652e-007 -2.14642e-006 5.25386e-007 -2.29652e-007 2.14642e-006 -5.25386e-007 4.77083e-015 -9.54166e-015 -6.36111e-015 -0.01459 -8.7044e-005 1.38683e-006 -2.31488e-007 2.14647e-006 -5.25113e-007 4.77083e-015 -9.54166e-015 -6.36111e-015 -0.0187823 -0.00117405 5.82167e-005 -1.27222e-014 0 3.18055e-015 4.77083e-015 -9.54166e-015 -6.36111e-015 -0.0122301 -0.00323827 0.00067553 7.95139e-015 0 3.18055e-015 4.77083e-015 -9.54166e-015 -6.36111e-015 2.29652e-007 -2.14642e-006 5.25386e-007 -2.29652e-007 2.14642e-006 -5.25386e-007 2.93201e-007 5.08083e-006 1.9987 60.4391 9.59162 72.974 4.71595 1.93137 10.9626 14.9983 16.9983 -0.00197291 -1.59028e-015 0 3.18055e-015 3.18055e-015 0 1.59028e-015 5.56597e-015 3.18055e-015 5.56597e-015 -1.59028e-015 0 3.18055e-015 0.0150257 -9.79502e-005 1.51402e-006 -1.42173e-006 2.409e-006 -5.37811e-007 -1.59028e-015 0 3.18055e-015 0.019019 -0.00119184 -5.39539e-005 -2.38542e-015 1.27222e-014 -4.77083e-015 -1.59028e-015 0 3.18055e-015 0.0122825 -0.00324899 -0.00067381 5.56597e-015 -6.36111e-015 -7.15625e-015 -1.59028e-015 0 3.18055e-015 3.18055e-015 0 1.59028e-015 5.56597e-015 3.18055e-015 5.56597e-015 -50.3292 -3.48257 15.6791 179.966 55.2231 175.694 -2.5047 16.1229 -2.53445 8.05146e-007 7.52697e-007 1.25346e-006 49.076 -13.5534 -3.34024 -179.92 41.2823 -173.636 -1.1776 43.1042 5.19833 -1.12378e-006 4.63632e-006 -1.46634e-006 
15.9976 9.09828 28.389 -0 -33.0001 -0 1.55037e-007 18.5993 -3.28151e-007 4.70906e-007 37.1986 -7.80682e-007 4.70906e-007 37.1986 -7.80682e-007 -4.93254e-013 13.8209 -1.99812e-012 1.03112 -32.8595 -2.52729 -1.50183e-013 1.22877e-005 -7.8872e-014 -62.4616 -0.466388 -20.2425 -1.1715e-006 -5.86335e-006 -112.598 -48.3098 -37.5945 -5.77263 2.22522e-006 -3.06054e-006 6.44735e-007 1.41162e-006 7.52797e-007 4.66979e-007 2.53681e-006 -3.25697e-006 -1.19449e-007 2.22522e-006 -3.06054e-006 6.44735e-007 -0.0146599 -8.99103e-005 -4.50908e-008 2.53673e-006 -3.25695e-006 -1.19867e-007 2.22522e-006 -3.06054e-006 6.44735e-007 -0.0187934 -0.00117692 5.95676e-005 2.76763e-006 -4.37751e-006 1.92236e-007 2.22522e-006 -3.06054e-006 6.44735e-007 -0.0123041 -0.0032542 0.000678554 2.76853e-006 -4.37781e-006 1.92522e-007 2.22522e-006 -3.06054e-006 6.44735e-007 1.41162e-006 7.52797e-007 4.66979e-007 2.53681e-006 -3.25697e-006 -1.19449e-007 2.11546e-007 5.07851e-006 1.9987 60.3362 9.25313 73.6025 4.71596 1.93137 10.9626 14.9983 16.9983 -0.00197077 -1.40587e-006 1.59942e-006 2.9635e-006 2.13634e-006 -7.33908e-007 -4.19596e-006 -7.30468e-007 -8.65514e-007 1.23247e-006 -1.40587e-006 1.59942e-006 2.9635e-006 0.0149496 -9.02206e-005 7.42435e-007 -7.30423e-007 -8.65354e-007 1.23258e-006 -1.40587e-006 1.59942e-006 2.9635e-006 0.0190175 -0.00119545 -6.34828e-005 -2.09007e-006 1.52294e-006 6.58292e-007 -1.40587e-006 1.59942e-006 2.9635e-006 0.0123467 -0.00326923 -0.000684624 -7.30391e-007 -8.65396e-007 1.23258e-006 -1.40587e-006 1.59942e-006 2.9635e-006 2.13634e-006 -7.33908e-007 -4.19596e-006 -7.30468e-007 -8.65514e-007 1.23247e-006 -50.1236 -4.0543 14.9137 179.964 54.0955 175.594 -2.47992 16.1157 -2.60559 -3.71132e-007 -2.79647e-006 -2.59377e-006 48.5076 -14.2455 -2.85658 -179.919 40.7063 -173.545 -1.24323 43.1023 5.28469 2.87455e-007 -4.59079e-007 7.93192e-007 
15.9936 9.10622 27.912 -0 -33.0001 -0 1.55037e-007 18.5993 -3.28151e-007 4.70906e-007 37.1986 -7.80682e-007 4.70906e-007 37.1986 -7.80682e-007 -1.18317e-012 13.5793 -5.17977e-012 1.04886 -34.5651 -2.65026 -1.50183e-013 1.22877e-005 -7.88719e-014 -62.646 -0.517409 -20.777 1.06334e-006 5.59641e-006 -111.516 -48.1344 -38.8287 -5.31761 2.13424e-006 -2.0543e-007 -9.37584e-007 3.5293e-006 -4.83235e-007 6.18629e-007 2.13424e-006 -2.0543e-007 -9.37584e-007 2.13424e-006 -2.0543e-007 -9.37584e-007 -0.0145962 -8.77746e-005 -1.3094e-006 2.13431e-006 -2.0531e-007 -9.37611e-007 2.13424e-006 -2.0543e-007 -9.37584e-007 -0.0187552 -0.00118141 5.70847e-005 2.13433e-006 -2.05271e-007 -9.3764e-007 2.13424e-006 -2.0543e-007 -9.37584e-007 -0.0123 -0.00326251 0.000677635 2.13427e-006 -2.05325e-007 -9.3767e-007 2.13424e-006 -2.0543e-007 -9.37584e-007 3.5293e-006 -4.83235e-007 6.18629e-007 2.13424e-006 -2.0543e-007 -9.37584e-007 1.47544e-007 5.99349e-006 1.9987 60.237 8.91352 74.2299 4.71592 1.93136 10.9626 14.9983 16.9983 -0.00196489 7.38e-007 8.67431e-007 -1.22816e-006 7.38e-007 8.67431e-007 -1.22816e-006 7.38e-007 8.67431e-007 -1.22816e-006 7.38e-007 8.67431e-007 -1.22816e-006 0.0150213 -9.17146e-005 -2.73849e-006 7.37955e-007 8.6727e-007 -1.22828e-006 7.38e-007 8.67431e-007 -1.22816e-006 0.0189809 -0.00118623 -6.29572e-005 7.37932e-007 8.67231e-007 -1.22831e-006 7.38e-007 8.67431e-007 -1.22816e-006 0.0122667 -0.00324557 -0.000674446 7.37925e-007 8.67313e-007 -1.22827e-006 7.38e-007 8.67431e-007 -1.22816e-006 7.38e-007 8.67431e-007 -1.22816e-006 7.38e-007 8.67431e-007 -1.22816e-006 -49.9233 -4.62809 14.1428 179.963 52.9681 175.489 -2.45401 16.1088 -2.67972 1.59028e-015 -3.18055e-015 -1.03368e-014 47.941 -14.941 -2.37515 -179.917 40.1307 -173.453 -1.31089 43.1005 5.37341 -3.18055e-015 3.18055e-015 7.95139e-015 
15.9897 9.11405 27.4347 -0 -33.0001 -0 1.55037e-007 18.5993 -3.28151e-007 4.70906e-007 37.1986 -7.80682e-007 4.70906e-007 37.1986 -7.80682e-007 -4.17291e-013 13.3374 -1.42681e-012 1.06244 -36.2698 -2.77515 -1.50183e-013 1.22877e-005 -7.8872e-014 -62.8312 -0.566774 -21.3125 2.04161e-015 1.13304e-014 -110.429 -47.9431 -40.0612 -4.84977 3.95907e-007 -3.08619e-006 8.16832e-007 -1.82971e-006 6.25465e-009 1.98316e-007 3.95907e-007 -3.08619e-006 8.16832e-007 3.95907e-007 -3.08619e-006 8.16832e-007 -0.0146369 -8.68074e-005 2.26346e-007 3.95761e-007 -3.08629e-006 8.16438e-007 3.95907e-007 -3.08619e-006 8.16832e-007 -0.0187389 -0.00117544 6.13321e-005 3.94282e-007 -4.59841e-006 1.18623e-006 3.95907e-007 -3.08619e-006 8.16832e-007 -0.0122152 -0.00323577 0.000674384 3.95789e-007 -3.08631e-006 8.16499e-007 3.95907e-007 -3.08619e-006 8.16832e-007 -1.82971e-006 6.25465e-009 1.98316e-007 3.95907e-007 -3.08619e-006 8.16832e-007 2.11546e-007 5.07851e-006 1.9987 60.1418 8.57276 74.8562 4.71595 1.93137 10.9626 14.9984 16.9982 -0.0019597 -4.77083e-015 1.59028e-014 -7.95139e-015 7.45504e-007 8.69314e-007 -1.22381e-006 7.45504e-007 8.69314e-007 -1.22381e-006 -4.77083e-015 1.59028e-014 -7.95139e-015 0.0149733 -8.2696e-005 -1.29527e-006 7.4546e-007 8.69154e-007 -1.22392e-006 -4.77083e-015 1.59028e-014 -7.95139e-015 0.019011 -0.00118591 -5.91782e-005 7.45437e-007 8.69115e-007 -1.22396e-006 -4.77083e-015 1.59028e-014 -7.95139e-015 0.0122567 -0.00324465 -0.000677495 7.45429e-007 8.69197e-007 -1.22392e-006 -4.77083e-015 1.59028e-014 -7.95139e-015 7.45504e-007 8.69314e-007 -1.22381e-006 7.45504e-007 8.69314e-007 -1.22381e-006 -49.7282 -5.20367 13.3661 179.961 51.8412 175.38 -2.42691 16.102 -2.75703 4.14995e-006 4.12802e-006 -5.55682e-007 47.376 -15.6399 -1.89596 -179.916 39.5556 -173.358 -1.38069 43.0989 5.46459 4.24332e-007 -6.51258e-007 1.14914e-006 
